<?xml version="1.0" encoding="UTF-8" standalone="no"?>
<!-- Created with Inkscape (http://www.inkscape.org/) -->

<svg
   width="18.183239mm"
   height="16.728031mm"
   viewBox="0 0 18.183239 16.728031"
   version="1.1"
   id="svg1"
   inkscape:version="1.4.4 (dcaf3e7, 2026-05-05)"
   xml:space="preserve"
   sodipodi:docname="TetraTools-wasserzeichen.svg"
   inkscape:export-filename="..\..\bilder\TetraTools-logo.jpg"
   inkscape:export-xdpi="279.37817"
   inkscape:export-ydpi="279.37817"
   xmlns:inkscape="http://www.inkscape.org/namespaces/inkscape"
   xmlns:sodipodi="http://sodipodi.sourceforge.net/DTD/sodipodi-0.dtd"
   xmlns="http://www.w3.org/2000/svg"
   xmlns:svg="http://www.w3.org/2000/svg"><sodipodi:namedview
     id="namedview1"
     pagecolor="#ffffff"
     bordercolor="#000000"
     borderopacity="0.25"
     inkscape:showpageshadow="2"
     inkscape:pageopacity="0.0"
     inkscape:pagecheckerboard="0"
     inkscape:deskcolor="#d1d1d1"
     inkscape:document-units="mm"
     inkscape:zoom="5.6568542"
     inkscape:cx="85.736698"
     inkscape:cy="45.343223"
     inkscape:window-width="1920"
     inkscape:window-height="1009"
     inkscape:window-x="-8"
     inkscape:window-y="-8"
     inkscape:window-maximized="1"
     inkscape:current-layer="layer1"
     showgrid="false"
     showguides="true" /><defs
     id="defs1" /><g
     inkscape:label="Ebene 1"
     inkscape:groupmode="layer"
     id="layer1"
     transform="translate(-12.637284,-55.698227)"><rect
       style="fill:none;fill-opacity:1;stroke:none;stroke-width:0.506863;stroke-dasharray:none;stroke-opacity:1"
       id="rect9"
       width="18.183239"
       height="16.728031"
       x="12.637284"
       y="55.698227"
       ry="0" /><path
       id="path160"
       style="baseline-shift:baseline;display:inline;overflow:visible;fill:#d1d49d;fill-opacity:1;stroke:#000000;stroke-width:0.5;stroke-linecap:round;stroke-dasharray:none;stroke-opacity:1;enable-background:accumulate;stop-color:#000000"
       d="m 15.31121,57.711206 c -0.103227,6.77e-4 -0.189571,0.07086 -0.220658,0.160197 l -1.049031,3.228744 c -0.04502,0.139339 0.05935,0.29876 0.220658,0.302307 h 4.03748 l -2.349728,7.229016 c -0.05171,0.157565 0.04812,0.301501 0.220659,0.302307 h 3.392557 c 0.107282,8.09e-4 0.18408,-0.04676 0.220659,-0.160197 l 2.394686,-7.371126 h 4.187341 c 0.110884,-0.0011 0.177336,-0.05478 0.220658,-0.159681 l 1.046965,-3.226676 c 0.05855,-0.159115 -0.06029,-0.306707 -0.218592,-0.304891 z"
       sodipodi:nodetypes="ccccccccccccccc" /><path
       id="path9"
       style="baseline-shift:baseline;display:inline;overflow:visible;fill:#d1d49d;fill-opacity:1;stroke:#000000;stroke-width:0.6;stroke-linecap:round;stroke-dasharray:none;stroke-opacity:1;enable-background:accumulate;stop-color:#000000"
       d="m 16.964855,59.761726 c -0.103227,6.77e-4 -0.189571,0.07086 -0.220658,0.160197 l -1.049031,3.228744 c -0.04502,0.139339 0.05935,0.29876 0.220658,0.302307 h 4.03748 l -2.349728,7.229016 c -0.05171,0.157565 0.04812,0.301501 0.220659,0.302307 h 3.392557 c 0.107282,8.09e-4 0.18408,-0.04676 0.220659,-0.160197 l 2.394686,-7.371126 h 4.187341 c 0.110884,-0.0011 0.177336,-0.05478 0.220658,-0.159681 l 1.046965,-3.226676 c 0.05855,-0.159115 -0.06029,-0.306707 -0.218592,-0.304891 z"
       sodipodi:nodetypes="ccccccccccccccc" /></g></svg>
